<?xml version="1.0" encoding="UTF-8" standalone="no"?>
<svg
   xmlns:dc="http://purl.org/dc/elements/1.1/"
   xmlns:cc="http://creativecommons.org/ns#"
   xmlns:rdf="http://www.w3.org/1999/02/22-rdf-syntax-ns#"
   xmlns:svg="http://www.w3.org/2000/svg"
   xmlns="http://www.w3.org/2000/svg"
   id="svg6211"
   version="1.1"
   viewBox="0 0 211.66665 34.395835"
   height="130"
   width="800">
  <defs
     id="defs6205">
    <marker
       style="overflow:visible"
       id="Arrow1Lend"
       refX="0"
       refY="0"
       orient="auto">
      <path
         transform="matrix(-0.8,0,0,-0.8,-10,0)"
         style="fill-rule:evenodd;stroke:#000000;stroke-width:1.00000003pt"
         d="M 0,0 5,-5 -12.5,0 5,5 Z"
         id="path6789" />
    </marker>
  </defs>
  <metadata
     id="metadata6208">
    <rdf:RDF>
      <cc:Work
         rdf:about="">
        <dc:format>image/svg+xml</dc:format>
        <dc:type
           rdf:resource="http://purl.org/dc/dcmitype/StillImage" />
        <dc:title></dc:title>
      </cc:Work>
    </rdf:RDF>
  </metadata>
  <g
     transform="translate(0,-262.60415)"
     id="layer1">
    <g
       id="flowRoot6213"
       style="font-style:normal;font-variant:normal;font-weight:bold;font-stretch:normal;font-size:96px;line-height:2;font-family:Corbel;-inkscape-font-specification:'Corbel Bold';letter-spacing:0px;word-spacing:0.2px;fill:none;fill-opacity:1;stroke:#c3f73a;stroke-width:1.19247663;stroke-linecap:square;stroke-linejoin:bevel;stroke-miterlimit:4;stroke-dasharray:none;stroke-opacity:1"
       transform="matrix(0.44375434,0,0,0.44375434,-17.865084,178.65706)"
       aria-label="About me">
      <path
         d="m 87.011762,206.73056 q -4.521316,0 -8.364434,1.49203 -3.797906,1.49204 -6.555908,4.34046 -2.71279,2.84843 -4.250037,7.05326 -1.537248,4.15961 -1.537248,9.53997 0,5.33516 1.401608,9.40434 1.401608,4.02397 4.023971,6.73676 2.622363,2.71279 6.375056,4.1144 3.797905,1.35639 8.5905,1.35639 3.4362,0 7.008039,-0.54255 3.57184,-0.54256 6.691551,-1.58246 v 9.53997 q -3.164924,0.90426 -6.82719,1.40161 -3.662266,0.54256 -7.595811,0.54256 -7.686237,0 -13.518734,-2.17023 -5.832498,-2.21545 -9.766042,-6.19421 -3.888332,-4.02397 -5.877711,-9.58519 -1.944166,-5.60643 -1.944166,-12.34319 0,-6.91761 2.079806,-12.84054 2.125018,-5.92292 6.058563,-10.26338 3.978758,-4.34047 9.901681,-6.82719 5.968137,-2.48672 13.473522,-2.53194 3.843118,0 7.279318,0.54256 3.4362,0.49735 6.194203,1.44682 v 9.40434 q -3.617053,-1.13033 -6.736761,-1.58246 -3.119708,-0.45213 -6.103776,-0.45213 z"
         style="font-style:normal;font-variant:normal;font-weight:bold;font-stretch:normal;font-size:96px;line-height:1.25;font-family:Corbel;-inkscape-font-specification:'Corbel Bold';letter-spacing:0px;word-spacing:0px;fill:none;fill-opacity:1;stroke:#c3f73a;stroke-width:1.19247663;stroke-miterlimit:4;stroke-dasharray:none;stroke-opacity:1"
         id="path7085" />
      <path
         d="m 140.99627,237.1138 q 0,-3.48141 -0.81383,-6.14899 -0.81384,-2.66758 -2.26066,-4.4761 -1.44682,-1.80853 -3.48141,-2.71279 -2.0346,-0.90426 -4.43089,-0.90426 -2.35109,0 -4.38568,0.90426 -1.98938,0.90426 -3.4362,2.71279 -1.44682,1.80852 -2.26066,4.4761 -0.81384,2.66758 -0.81384,6.14899 0,3.48141 0.81384,6.14899 0.81384,2.66758 2.26066,4.4761 1.49203,1.76332 3.48141,2.71279 2.03459,0.90426 4.43089,0.90426 2.3963,0 4.38568,-0.90426 1.98938,-0.94947 3.4362,-2.71279 1.44682,-1.80852 2.26066,-4.4761 0.81383,-2.66758 0.81383,-6.14899 z m 11.07723,0 q 0,5.1543 -1.53725,9.40434 -1.53725,4.25003 -4.43089,7.27932 -2.84843,3.02928 -6.91761,4.70216 -4.06919,1.62768 -9.08785,1.62768 -5.1543,0 -9.2687,-1.62768 -4.06918,-1.67288 -6.91761,-4.70216 -2.84843,-3.02929 -4.38568,-7.27932 -1.49203,-4.25004 -1.49203,-9.40434 0,-5.1543 1.53725,-9.40434 1.53725,-4.25003 4.38567,-7.27932 2.89365,-3.02928 6.96283,-4.65695 4.06918,-1.67289 9.08785,-1.67289 5.1543,0 9.22348,1.67289 4.1144,1.62767 6.96283,4.65695 2.84843,3.02929 4.34046,7.27932 1.53725,4.25004 1.53725,9.40434 z"
         style="font-style:normal;font-variant:normal;font-weight:bold;font-stretch:normal;font-size:96px;line-height:1.25;font-family:Corbel;-inkscape-font-specification:'Corbel Bold';letter-spacing:0px;word-spacing:0px;fill:none;fill-opacity:1;stroke:#c3f73a;stroke-width:1.19247663;stroke-miterlimit:4;stroke-dasharray:none;stroke-opacity:1"
         id="path7087" />
      <path
         d="m 171.51515,221.28919 h 0.18086 q 0.94948,-1.35639 2.3963,-2.66757 1.44682,-1.31118 3.30055,-2.30587 1.85375,-0.99469 4.06919,-1.58246 2.26066,-0.63299 4.79259,-0.63299 2.39631,0 4.61175,0.54256 2.26065,0.54256 4.1144,1.7181 1.85373,1.13033 3.25535,2.98407 1.44682,1.80853 2.26065,4.34046 0.45213,1.40161 0.58777,3.0745 0.18085,1.62767 0.18085,3.7979 v 28.43908 H 190.5499 v -26.76619 q 0,-1.76331 -0.13565,-3.02928 -0.13563,-1.26597 -0.49734,-2.21545 -0.81383,-2.0798 -2.48672,-2.98407 -1.62768,-0.90426 -3.97876,-0.90426 -3.11971,0 -6.01335,1.49204 -2.84843,1.44682 -5.06387,4.25003 v 30.15718 h -10.71552 v -43.81155 h 8.86177 z"
         style="font-style:normal;font-variant:normal;font-weight:bold;font-stretch:normal;font-size:96px;line-height:1.25;font-family:Corbel;-inkscape-font-specification:'Corbel Bold';letter-spacing:0px;word-spacing:0px;fill:none;fill-opacity:1;stroke:#c3f73a;stroke-width:1.19247663;stroke-miterlimit:4;stroke-dasharray:none;stroke-opacity:1"
         id="path7089" />
      <path
         d="m 239.78702,258.95176 q -1.80852,0.54255 -4.34046,0.85905 -2.48672,0.31649 -4.65695,0.31649 -5.51601,0 -9.04263,-1.76332 -3.48142,-1.80852 -4.92824,-5.1543 -1.0399,-2.39629 -1.0399,-6.51069 v -22.69701 h -8.18359 v -8.81656 h 8.18359 v -12.25277 h 10.71551 v 12.25277 h 12.65969 v 8.81656 h -12.65969 v 21.2954 q 0,2.53194 0.76863,3.75269 1.3564,2.07981 5.38036,2.07981 1.85375,0 3.66227,-0.27128 1.85374,-0.31649 3.48141,-0.76862 z"
         style="font-style:normal;font-variant:normal;font-weight:bold;font-stretch:normal;font-size:96px;line-height:1.25;font-family:Corbel;-inkscape-font-specification:'Corbel Bold';letter-spacing:0px;word-spacing:0px;fill:none;fill-opacity:1;stroke:#c3f73a;stroke-width:1.19247663;stroke-miterlimit:4;stroke-dasharray:none;stroke-opacity:1"
         id="path7091" />
      <path
         d="m 273.87774,254.34001 h -0.18085 q -0.90426,0.94948 -2.17023,1.94417 -1.26597,0.99469 -2.89364,1.89895 -1.62768,0.85905 -3.61705,1.40161 -1.98938,0.54256 -4.29525,0.54256 -3.11971,0 -5.8325,-0.99469 -2.71279,-0.94948 -4.65695,-2.758 -1.94417,-1.85374 -3.0745,-4.43089 -1.08511,-2.62237 -1.08511,-5.8325 0,-3.52663 1.26597,-6.32984 1.31117,-2.80322 3.61705,-4.74739 2.30586,-1.94416 5.516,-2.93885 3.21013,-1.0399 7.09846,-1.0399 2.84844,0 5.24473,0.3617 2.3963,0.36171 4.20483,0.85905 v -1.76331 q 0,-1.53725 -0.54256,-2.93886 -0.49735,-1.44682 -1.67289,-2.53193 -1.13032,-1.13033 -2.98407,-1.76332 -1.85373,-0.67819 -4.52131,-0.67819 -3.25535,0 -6.5107,0.72341 -3.25535,0.72341 -7.05325,2.17023 v -8.36444 q 3.30056,-1.44682 7.00804,-2.21544 3.70748,-0.76862 7.77667,-0.81384 4.79259,0 8.36443,1.17554 3.61705,1.17555 6.01335,3.25535 2.44151,2.03459 3.61705,4.83781 1.22075,2.80322 1.22075,6.10378 v 16.5028 q 0,4.34046 0.0904,7.46017 0.0904,3.11971 0.18085,5.56122 h -9.67561 z m -0.85904,-14.01608 q -1.53725,-0.3617 -3.52663,-0.63298 -1.98938,-0.31649 -4.02397,-0.31649 -3.93354,0 -6.23942,1.58246 -2.26066,1.53725 -2.26066,4.74738 0,1.49203 0.49735,2.62236 0.54256,1.08512 1.40161,1.80853 0.90426,0.72341 2.0798,1.08512 1.17554,0.3617 2.48673,0.3617 1.62767,0 3.07449,-0.40692 1.44683,-0.45213 2.66758,-1.08511 1.22076,-0.6782 2.17023,-1.49204 0.99469,-0.81383 1.67289,-1.58246 z"
         style="font-style:normal;font-variant:normal;font-weight:bold;font-stretch:normal;font-size:96px;line-height:1.25;font-family:Corbel;-inkscape-font-specification:'Corbel Bold';letter-spacing:0px;word-spacing:0px;fill:none;fill-opacity:1;stroke:#c3f73a;stroke-width:1.19247663;stroke-miterlimit:4;stroke-dasharray:none;stroke-opacity:1"
         id="path7093" />
      <path
         d="m 327.41012,258.04749 q -2.03458,0.85905 -4.97344,1.44682 -2.93885,0.63299 -6.1942,0.63299 -4.74739,0 -8.86178,-1.3564 -4.1144,-1.35639 -7.1889,-4.11439 -3.07449,-2.75801 -4.8378,-6.96283 -1.76332,-4.25004 -1.76332,-9.90168 0,-6.32984 2.0346,-10.85116 2.03459,-4.52132 5.24473,-7.32453 3.25534,-2.84843 7.27931,-4.15961 4.06918,-1.3564 8.00273,-1.3564 2.93885,0 5.65164,0.54256 2.71279,0.49734 4.92824,1.40161 v 8.72614 q -1.98938,-0.85905 -4.25004,-1.3564 -2.21544,-0.54255 -4.79259,-0.54255 -2.57715,0 -4.92824,0.81383 -2.35108,0.76863 -4.15961,2.48673 -1.80853,1.7181 -2.89364,4.56652 -1.0399,2.80322 -1.0399,6.78198 0,2.89364 0.81384,5.47079 0.81383,2.53194 2.35108,4.34046 1.58246,1.80853 3.97876,2.93886 2.44151,1.08511 5.74207,1.08511 2.93886,0 5.33515,-0.58777 2.3963,-0.58777 4.52131,-1.44682 z"
         style="font-style:normal;font-variant:normal;font-weight:bold;font-stretch:normal;font-size:96px;line-height:1.25;font-family:Corbel;-inkscape-font-specification:'Corbel Bold';letter-spacing:0px;word-spacing:0px;fill:none;fill-opacity:1;stroke:#c3f73a;stroke-width:1.19247663;stroke-miterlimit:4;stroke-dasharray:none;stroke-opacity:1"
         id="path7095" />
      <path
         d="m 363.49022,258.95176 q -1.80852,0.54255 -4.34046,0.85905 -2.48672,0.31649 -4.65695,0.31649 -5.516,0 -9.04263,-1.76332 -3.48142,-1.80852 -4.92824,-5.1543 -1.0399,-2.39629 -1.0399,-6.51069 v -22.69701 h -8.18358 v -8.81656 h 8.18358 v -12.25277 h 10.71552 v 12.25277 h 12.65968 v 8.81656 h -12.65968 v 21.2954 q 0,2.53194 0.76862,3.75269 1.3564,2.07981 5.38037,2.07981 1.85374,0 3.66227,-0.27128 1.85373,-0.31649 3.4814,-0.76862 z"
         style="font-style:normal;font-variant:normal;font-weight:bold;font-stretch:normal;font-size:96px;line-height:1.25;font-family:Corbel;-inkscape-font-specification:'Corbel Bold';letter-spacing:0px;word-spacing:0px;fill:none;fill-opacity:1;stroke:#c3f73a;stroke-width:1.19247663;stroke-miterlimit:4;stroke-dasharray:none;stroke-opacity:1"
         id="path7097" />
      <path
         d="m 447.40585,232.32121 q 0,-1.40161 -0.0904,-2.62237 -0.0904,-1.22075 -0.31649,-2.12502 -0.49735,-1.98938 -1.94417,-3.21013 -1.44682,-1.22076 -4.06918,-1.26597 -1.40161,0 -2.89365,0.40692 -1.49203,0.40692 -2.98406,1.17554 -1.44683,0.72341 -2.80322,1.80853 -1.31118,1.0399 -2.39629,2.35108 v 30.15718 h -10.71553 v -26.67576 q 0,-1.40161 -0.0904,-2.62237 -0.0904,-1.22075 -0.31649,-2.12502 -0.49735,-1.98938 -1.94417,-3.21013 -1.4016,-1.22076 -4.06919,-1.26597 -1.4016,0 -2.89364,0.40692 -1.49203,0.40692 -2.98407,1.17554 -1.44682,0.72341 -2.80321,1.80853 -1.31118,1.0399 -2.3963,2.35108 v 30.15718 h -10.71561 v -43.81155 h 8.86177 l 0.99469,6.10377 h 0.18086 q 0.94948,-1.35639 2.3963,-2.66757 1.44682,-1.31118 3.25535,-2.30587 1.85373,-0.99469 4.02396,-1.58246 2.21545,-0.63299 4.65696,-0.63299 4.34047,0 7.77667,1.94417 3.4814,1.89895 5.28993,5.96814 h 0.18085 q 1.26597,-1.76332 2.80322,-3.21014 1.58246,-1.44682 3.48142,-2.48672 1.89895,-1.03991 4.06918,-1.62768 2.21544,-0.58777 4.70217,-0.58777 4.70217,0.0452 7.86709,1.98938 3.21013,1.89895 4.92823,5.24473 0.45213,0.85905 0.76863,1.89895 0.31648,0.99469 0.49734,2.26066 0.22607,1.26597 0.31649,2.80321 0.0904,1.53725 0.0904,3.52663 v 27.17311 H 447.4058 Z"
         style="font-style:normal;font-variant:normal;font-weight:bold;font-stretch:normal;font-size:96px;line-height:1.25;font-family:Corbel;-inkscape-font-specification:'Corbel Bold';letter-spacing:0px;word-spacing:0px;fill:none;fill-opacity:1;stroke:#c3f73a;stroke-width:1.19247663;stroke-miterlimit:4;stroke-dasharray:none;stroke-opacity:1"
         id="path7099" />
      <path
         d="m 492.39294,251.49158 q 3.11971,0 6.5107,-0.63298 3.39098,-0.63298 6.8724,-1.80853 v 8.54529 q -2.07981,0.90426 -6.37506,1.7181 -4.29525,0.81384 -8.90699,0.81384 -4.65696,0 -8.86178,-1.17554 -4.15961,-1.22076 -7.27932,-3.88834 -3.1197,-2.66757 -4.97345,-6.91761 -1.80852,-4.25004 -1.80852,-10.3086 0,-5.96814 1.7181,-10.44424 1.7181,-4.4761 4.61174,-7.41496 2.89364,-2.93885 6.60112,-4.38567 3.7527,-1.49204 7.73145,-1.49204 4.15961,0 7.64102,1.26597 3.52663,1.26597 6.05857,3.97876 2.57715,2.71279 3.97875,7.00804 1.44682,4.25004 1.44682,10.08253 -0.0452,2.26066 -0.13563,3.84312 H 478.5125 q 0.22607,3.02928 1.35639,5.19951 1.13034,2.12502 2.93886,3.48142 1.85374,1.31118 4.29525,1.94416 2.44151,0.58777 5.28994,0.58777 z m -4.29525,-29.02684 q -2.03459,0 -3.61705,0.76862 -1.58246,0.72341 -2.758,2.03459 -1.13033,1.26597 -1.80853,2.98407 -0.6782,1.7181 -0.90426,3.66227 h 17.22621 q 0,-1.94417 -0.54256,-3.66227 -0.49734,-1.7181 -1.53725,-2.98407 -0.99469,-1.31118 -2.53193,-2.03459 -1.49203,-0.76862 -3.52663,-0.76862 z"
         style="font-style:normal;font-variant:normal;font-weight:bold;font-stretch:normal;font-size:96px;line-height:1.25;font-family:Corbel;-inkscape-font-specification:'Corbel Bold';letter-spacing:0px;word-spacing:0px;fill:none;fill-opacity:1;stroke:#c3f73a;stroke-width:1.19247663;stroke-miterlimit:4;stroke-dasharray:none;stroke-opacity:1"
         id="path7101" />
    </g>
  </g>
</svg>
